<mxfile host="app.diagrams.net" agent="Mozilla/5.0 (Macintosh; Intel Mac OS X 10_15_7) AppleWebKit/605.1.15 (KHTML, like Gecko) Version/17.5 Safari/605.1.15" version="26.2.2">
  <diagram name="第 1 页" id="vN8b3t6IUPXs9Uko8Ln7">
    <mxGraphModel dx="678" dy="384" grid="1" gridSize="10" guides="1" tooltips="1" connect="1" arrows="1" fold="1" page="1" pageScale="1" pageWidth="827" pageHeight="1169" math="0" shadow="0">
      <root>
        <mxCell id="0" />
        <mxCell id="1" parent="0" />
        <mxCell id="UKsl6Ec4g9CgcUqSqF3G-386" value="" style="shape=flexArrow;endArrow=classic;html=1;rounded=0;endWidth=18.4;endSize=5.4;" edge="1" parent="1">
          <mxGeometry width="50" height="50" relative="1" as="geometry">
            <mxPoint x="681" y="1004" as="sourcePoint" />
            <mxPoint x="681" y="970" as="targetPoint" />
          </mxGeometry>
        </mxCell>
        <mxCell id="UKsl6Ec4g9CgcUqSqF3G-387" value="&lt;font size=&quot;4&quot;&gt;支撑&lt;/font&gt;" style="text;html=1;align=center;verticalAlign=middle;whiteSpace=wrap;rounded=0;" vertex="1" parent="1">
          <mxGeometry x="690" y="973" width="60" height="30" as="geometry" />
        </mxCell>
        <mxCell id="UKsl6Ec4g9CgcUqSqF3G-388" value="&lt;b&gt;&lt;font style=&quot;font-size: 18px;&quot;&gt;云边协同AI推理调度方法&lt;/font&gt;&lt;/b&gt;" style="rounded=0;whiteSpace=wrap;html=1;fillColor=#f5f5f5;fontColor=#333333;strokeColor=#666666;" vertex="1" parent="1">
          <mxGeometry x="541" y="1010" width="284" height="40" as="geometry" />
        </mxCell>
        <mxCell id="UKsl6Ec4g9CgcUqSqF3G-389" value="" style="rounded=0;whiteSpace=wrap;html=1;" vertex="1" parent="1">
          <mxGeometry x="539" y="800" width="286" height="163" as="geometry" />
        </mxCell>
        <mxCell id="UKsl6Ec4g9CgcUqSqF3G-390" value="&lt;b style=&quot;caret-color: rgb(51, 51, 51); color: rgb(51, 51, 51);&quot;&gt;&lt;font style=&quot;font-size: 18px;&quot;&gt;云边协同AI推理调度系统&lt;/font&gt;&lt;/b&gt;" style="text;html=1;align=center;verticalAlign=middle;whiteSpace=wrap;rounded=0;" vertex="1" parent="1">
          <mxGeometry x="540" y="808" width="283" height="30" as="geometry" />
        </mxCell>
        <mxCell id="UKsl6Ec4g9CgcUqSqF3G-391" value="&lt;font style=&quot;font-size: 18px;&quot;&gt;系统&lt;/font&gt;&lt;div&gt;&lt;font style=&quot;font-size: 18px;&quot;&gt;协调服务&lt;/font&gt;&lt;/div&gt;" style="rounded=1;whiteSpace=wrap;html=1;" vertex="1" parent="1">
          <mxGeometry x="560" y="906" width="119" height="48" as="geometry" />
        </mxCell>
        <mxCell id="UKsl6Ec4g9CgcUqSqF3G-392" value="&lt;font size=&quot;4&quot;&gt;AI模型&lt;/font&gt;&lt;div&gt;&lt;font size=&quot;4&quot;&gt;推理&lt;/font&gt;&lt;span style=&quot;font-size: 18px;&quot;&gt;服务&lt;/span&gt;&lt;/div&gt;" style="rounded=1;whiteSpace=wrap;html=1;" vertex="1" parent="1">
          <mxGeometry x="560" y="848" width="120" height="51" as="geometry" />
        </mxCell>
        <mxCell id="UKsl6Ec4g9CgcUqSqF3G-393" value="&lt;font style=&quot;font-size: 18px;&quot;&gt;系统&lt;/font&gt;&lt;div&gt;&lt;font style=&quot;font-size: 18px;&quot;&gt;监控&lt;/font&gt;&lt;span style=&quot;font-size: 18px;&quot;&gt;服务&lt;/span&gt;&lt;/div&gt;" style="rounded=1;whiteSpace=wrap;html=1;" vertex="1" parent="1">
          <mxGeometry x="690" y="904.5" width="118" height="51" as="geometry" />
        </mxCell>
        <mxCell id="UKsl6Ec4g9CgcUqSqF3G-394" value="" style="shape=actor;whiteSpace=wrap;html=1;" vertex="1" parent="1">
          <mxGeometry x="389" y="976" width="33" height="43" as="geometry" />
        </mxCell>
        <mxCell id="UKsl6Ec4g9CgcUqSqF3G-395" value="" style="shape=flexArrow;endArrow=classic;html=1;rounded=0;" edge="1" parent="1">
          <mxGeometry width="50" height="50" relative="1" as="geometry">
            <mxPoint x="405" y="964" as="sourcePoint" />
            <mxPoint x="405" y="914" as="targetPoint" />
          </mxGeometry>
        </mxCell>
        <mxCell id="UKsl6Ec4g9CgcUqSqF3G-396" value="" style="ellipse;shape=cloud;whiteSpace=wrap;html=1;" vertex="1" parent="1">
          <mxGeometry x="340" y="834" width="130" height="76" as="geometry" />
        </mxCell>
        <mxCell id="UKsl6Ec4g9CgcUqSqF3G-397" value="" style="shape=flexArrow;endArrow=classic;startArrow=classic;html=1;rounded=0;exitX=0.962;exitY=0.566;exitDx=0;exitDy=0;exitPerimeter=0;" edge="1" parent="1" source="UKsl6Ec4g9CgcUqSqF3G-396">
          <mxGeometry width="100" height="100" relative="1" as="geometry">
            <mxPoint x="475" y="880" as="sourcePoint" />
            <mxPoint x="535" y="877" as="targetPoint" />
          </mxGeometry>
        </mxCell>
        <mxCell id="UKsl6Ec4g9CgcUqSqF3G-398" value="&lt;i&gt;&lt;font style=&quot;font-size: 16px;&quot;&gt;配置&lt;/font&gt;&lt;/i&gt;&lt;div&gt;&lt;i&gt;&lt;font style=&quot;font-size: 16px;&quot;&gt;终端设备&lt;/font&gt;&lt;/i&gt;&lt;/div&gt;" style="text;html=1;align=center;verticalAlign=middle;resizable=0;points=[];autosize=1;strokeColor=none;fillColor=none;" vertex="1" parent="1">
          <mxGeometry x="410" y="928" width="90" height="50" as="geometry" />
        </mxCell>
        <mxCell id="UKsl6Ec4g9CgcUqSqF3G-399" value="&lt;i&gt;&lt;font style=&quot;font-size: 16px;&quot;&gt;交互协同&lt;/font&gt;&lt;/i&gt;" style="text;html=1;align=center;verticalAlign=middle;resizable=0;points=[];autosize=1;strokeColor=none;fillColor=none;" vertex="1" parent="1">
          <mxGeometry x="455" y="834" width="90" height="30" as="geometry" />
        </mxCell>
        <mxCell id="UKsl6Ec4g9CgcUqSqF3G-400" value="&lt;b style=&quot;caret-color: rgb(51, 51, 51); color: rgb(51, 51, 51);&quot;&gt;&lt;font style=&quot;font-size: 18px;&quot;&gt;云边协同平台&lt;/font&gt;&lt;/b&gt;" style="text;html=1;align=center;verticalAlign=middle;whiteSpace=wrap;rounded=0;" vertex="1" parent="1">
          <mxGeometry x="347.5" y="804" width="115" height="30" as="geometry" />
        </mxCell>
        <mxCell id="UKsl6Ec4g9CgcUqSqF3G-401" value="&lt;font size=&quot;4&quot;&gt;数据&lt;/font&gt;&lt;div&gt;&lt;font size=&quot;4&quot;&gt;路由服务&lt;/font&gt;&lt;/div&gt;" style="rounded=1;whiteSpace=wrap;html=1;" vertex="1" parent="1">
          <mxGeometry x="690" y="848" width="118" height="51" as="geometry" />
        </mxCell>
        <mxCell id="UKsl6Ec4g9CgcUqSqF3G-402" value="&lt;font size=&quot;3&quot;&gt;用户&lt;/font&gt;" style="text;html=1;align=center;verticalAlign=middle;resizable=0;points=[];autosize=1;strokeColor=none;fillColor=none;" vertex="1" parent="1">
          <mxGeometry x="375.5" y="1022" width="60" height="30" as="geometry" />
        </mxCell>
      </root>
    </mxGraphModel>
  </diagram>
</mxfile>
